<svg width="24" height="25" viewBox="0 0 24 25" fill="none" xmlns="http://www.w3.org/2000/svg">
<path fill-rule="evenodd" clip-rule="evenodd" d="M21.201 14.5667C21.201 14.5796 21.201 14.5933 21.2002 14.6059C21.1961 15.825 20.98 16.9951 20.5838 18.0818C20.531 18.2277 20.4753 18.3708 20.4147 18.5129C19.2666 21.2774 16.947 23.4499 14.0629 24.4307C13.6924 24.5572 13.3139 24.6639 12.9267 24.7473C12.178 24.9138 11.3995 25 10.6009 25C9.51495 25 8.46753 24.8404 7.48189 24.5406C7.23215 24.4649 6.98618 24.3807 6.74513 24.2876C2.86641 22.7961 0.0997818 19.1225 0.0031907 14.8C0.00116024 14.7226 0 14.6441 0 14.5667C0 14.4894 0.00116024 14.412 0.0031907 14.3335C0.068745 11.3555 1.40391 8.68327 3.49671 6.82224C3.66379 6.67348 3.83522 6.53129 4.01129 6.3931C5.82128 4.9772 8.11017 4.13148 10.6009 4.13148C11.3995 4.13148 12.178 4.21771 12.9258 4.38331C13.313 4.46868 13.6933 4.57547 14.0637 4.70167C15.2915 5.11879 16.417 5.75175 17.3933 6.55448L17.9116 5.98157L17.4054 3.68952L20.4905 0L20.8586 2.72412L20.9178 3.16244L21.2757 3.2021L21.3322 3.20836L24 3.50395L21.0712 6.61814L18.3898 6.46079L17.9016 7.00032C19.0784 8.10074 19.9985 9.46449 20.5649 10.9957V10.9969C20.6485 11.2221 20.7242 11.4514 20.7929 11.6847C21.0168 12.4539 21.1532 13.2613 21.19 14.0925C21.197 14.2492 21.201 14.408 21.201 14.5667ZM19.0347 14.5981C19.0359 14.5872 19.0359 14.5775 19.0359 14.5667C19.0359 14.4402 19.033 14.3137 19.0269 14.1912C18.997 13.5299 18.8886 12.8881 18.7105 12.2756C18.6556 12.0903 18.5959 11.9062 18.5292 11.7269C18.0862 10.5301 17.3718 9.46197 16.4593 8.59462L14.9291 10.286C15.5607 10.905 16.056 11.6587 16.3674 12.4999C16.4161 12.6304 16.4599 12.7643 16.4988 12.8988C16.6282 13.3436 16.7068 13.811 16.7288 14.2921C16.7346 14.3824 16.7378 14.4743 16.7378 14.5665C16.7378 14.5742 16.7378 14.5822 16.7367 14.5891C16.7346 15.2946 16.6093 15.9719 16.3805 16.6009C16.3506 16.6851 16.3175 16.7685 16.2827 16.8507C15.6188 18.451 14.2758 19.7082 12.6062 20.2755C12.3921 20.3481 12.1731 20.4109 11.948 20.4588C11.5149 20.5548 11.0639 20.6047 10.6018 20.6047C9.97383 20.6047 9.36731 20.5117 8.79588 20.3392C8.65172 20.2961 8.5093 20.2473 8.36891 20.1933C6.12382 19.3299 4.5218 17.2036 4.46611 14.7019L4.46556 14.6748C4.46482 14.6387 4.46408 14.6026 4.46408 14.5665C4.46408 14.5304 4.46482 14.4943 4.46556 14.4582L4.46611 14.4312C4.5041 12.7075 5.27654 11.1602 6.48814 10.0833C6.58473 9.99703 6.68422 9.91479 6.78574 9.83542C7.83316 9.01626 9.15846 8.5263 10.6001 8.5263C11.0619 8.5263 11.5129 8.57627 11.9451 8.6722C12.169 8.72131 12.3889 8.78299 12.6041 8.85637C13.2691 9.0823 13.882 9.41744 14.4209 9.84008L15.9509 8.1488C15.1868 7.53098 14.3103 7.04284 13.3562 6.71853C13.0603 6.61745 12.7586 6.53208 12.45 6.4647C11.8548 6.33222 11.2355 6.26369 10.6003 6.26369C8.61799 6.26369 6.7961 6.93581 5.35652 8.06277C5.21613 8.17155 5.0798 8.28519 4.94637 8.40397C3.28083 9.88468 2.21948 12.0101 2.16669 14.3805L2.16615 14.4174C2.16541 14.4668 2.16466 14.5162 2.16466 14.5658C2.16466 14.6153 2.16541 14.6654 2.16616 14.7153L2.16669 14.752C2.24327 18.1905 4.44572 21.1145 7.53199 22.3012C7.72315 22.3757 7.91923 22.4422 8.11821 22.5022C8.90284 22.7403 9.73619 22.8677 10.6003 22.8677C11.2364 22.8677 11.8557 22.7991 12.4512 22.6666C12.7598 22.6001 13.0603 22.5148 13.355 22.4148C15.65 21.6348 17.4957 19.9074 18.4097 17.7074V17.7063C18.4575 17.5938 18.5022 17.4799 18.544 17.3634C18.8596 16.4991 19.0318 15.5683 19.0347 14.5981ZM14.5227 14.5815V14.5669C14.5227 14.5081 14.5216 14.4493 14.5187 14.3924C14.5047 14.0847 14.454 13.786 14.3713 13.5016C14.3455 13.4154 14.3176 13.3303 14.2866 13.2469C14.1023 12.7474 13.8162 12.2964 13.4529 11.9178L11.9908 13.534C12.0932 13.6679 12.176 13.8171 12.2351 13.9776C12.249 14.015 12.2612 14.0521 12.2731 14.0904C12.3099 14.2168 12.3317 14.349 12.3386 14.4852C12.3398 14.5138 12.3407 14.54 12.3407 14.5657V14.5726C12.3398 14.7725 12.305 14.9643 12.2392 15.1428L12.2364 15.1499C12.2283 15.171 12.2202 15.1923 12.2113 15.2133C12.0231 15.667 11.6419 16.0236 11.168 16.1844C11.107 16.2049 11.0455 16.2226 10.9817 16.2363C10.8593 16.2637 10.7308 16.2775 10.5994 16.2775C10.4213 16.2775 10.249 16.2512 10.0878 16.2021C10.0469 16.1892 10.006 16.1755 9.96622 16.161C9.32895 15.916 8.875 15.3124 8.85905 14.6029V14.5646V14.5263C8.87007 14.0375 9.08907 13.5984 9.4325 13.2926C9.46035 13.268 9.48849 13.2446 9.5172 13.2221C9.81394 12.9899 10.1901 12.8506 10.5994 12.8506C10.7308 12.8506 10.8582 12.8655 10.9809 12.892C11.0444 12.9057 11.107 12.9231 11.168 12.9437C11.2785 12.9814 11.384 13.0297 11.4832 13.0873L12.9444 11.4722C12.6245 11.2373 12.267 11.0494 11.8823 10.9185C11.7451 10.8717 11.6047 10.8323 11.4614 10.8011C11.1844 10.7403 10.8966 10.7078 10.6011 10.7078C9.68011 10.7078 8.83284 11.0204 8.16395 11.5446C8.09927 11.5958 8.03545 11.6486 7.97367 11.7034C7.1992 12.3915 6.70522 13.3803 6.68144 14.4815C6.68057 14.5109 6.68057 14.5395 6.68057 14.5678C6.68057 14.5963 6.68057 14.6257 6.68144 14.654C6.7174 16.2523 7.74075 17.6114 9.1754 18.1633C9.26503 18.1976 9.35553 18.229 9.44806 18.2564C9.81267 18.3669 10.2008 18.4257 10.6019 18.4257C10.8978 18.4257 11.1855 18.3946 11.4623 18.3326C11.6056 18.3015 11.7459 18.2621 11.8823 18.2153C12.9497 17.8527 13.8068 17.0501 14.2321 16.0271C14.255 15.974 14.2759 15.9211 14.2947 15.8672C14.4409 15.4654 14.5216 15.0323 14.5227 14.5815Z" fill="black"/>
</svg>
