<svg width="17" height="18" viewBox="0 0 17 18" fill="none" xmlns="http://www.w3.org/2000/svg">
<path d="M10.0948 18H6.90579C6.70598 18 6.51216 17.9299 6.35648 17.8012C6.2008 17.6726 6.09261 17.4931 6.04985 17.2926L5.69328 15.597C5.21762 15.3829 4.76658 15.1151 4.34848 14.7987L2.73911 15.3252C2.54862 15.3876 2.34307 15.3812 2.15662 15.307C1.97016 15.2329 1.814 15.0954 1.71409 14.9175L0.1161 12.0816C0.0172295 11.9035 -0.0198841 11.6962 0.0108315 11.4937C0.041547 11.2911 0.138273 11.1052 0.285185 10.9665L1.53361 9.7965C1.47684 9.2665 1.47684 8.7317 1.53361 8.2017L0.285185 7.0344C0.138065 6.8956 0.0412074 6.70957 0.0104868 6.5068C-0.0202338 6.30404 0.0170052 6.09657 0.1161 5.9184L1.71058 3.0807C1.8105 2.90278 1.96665 2.76533 2.15311 2.69117C2.33957 2.61701 2.54511 2.61059 2.73561 2.673L4.34498 3.1995C4.55875 3.0375 4.78127 2.8863 5.01081 2.7495C5.23246 2.6217 5.46024 2.5056 5.69328 2.4021L6.05073 0.7083C6.09328 0.507778 6.20127 0.328219 6.35678 0.199394C6.5123 0.0705689 6.70601 0.000215969 6.90579 0H10.0948C10.2945 0.000215969 10.4882 0.0705689 10.6438 0.199394C10.7993 0.328219 10.9073 0.507778 10.9498 0.7083L11.3108 2.403C11.7858 2.61834 12.2367 2.88601 12.6556 3.2013L14.2658 2.6748C14.4562 2.61262 14.6615 2.61915 14.8478 2.6933C15.0341 2.76746 15.1901 2.90478 15.29 3.0825L16.8844 5.9202C17.0877 6.2865 17.0176 6.75 16.7154 7.0353L15.4669 8.2053C15.5237 8.7353 15.5237 9.2701 15.4669 9.8001L16.7154 10.9701C17.0176 11.2563 17.0877 11.7189 16.8844 12.0852L15.29 14.9229C15.19 15.1008 15.0339 15.2383 14.8474 15.3124C14.661 15.3866 14.4554 15.393 14.2649 15.3306L12.6556 14.8041C12.2378 15.1203 11.787 15.3878 11.3116 15.6015L10.9498 17.2926C10.9071 17.493 10.799 17.6723 10.6435 17.801C10.488 17.9296 10.2944 17.9998 10.0948 18V18ZM8.49676 5.4C7.56735 5.4 6.67601 5.77928 6.01881 6.45442C5.36162 7.12955 4.99241 8.04522 4.99241 9C4.99241 9.95478 5.36162 10.8705 6.01881 11.5456C6.67601 12.2207 7.56735 12.6 8.49676 12.6C9.42618 12.6 10.3175 12.2207 10.9747 11.5456C11.6319 10.8705 12.0011 9.95478 12.0011 9C12.0011 8.04522 11.6319 7.12955 10.9747 6.45442C10.3175 5.77928 9.42618 5.4 8.49676 5.4V5.4Z" fill="black"/>
</svg>
