<svg width="24" height="18" viewBox="0 0 24 18" fill="none" xmlns="http://www.w3.org/2000/svg">
<path fill-rule="evenodd" clip-rule="evenodd" d="M0 0H24L22.2947 2.91018H1.70526L0 0Z" fill="black"/>
<path fill-rule="evenodd" clip-rule="evenodd" d="M2.21053 3.77245H21.7895L20.0842 6.68263H3.91579L2.21053 3.77245Z" fill="black"/>
<path fill-rule="evenodd" clip-rule="evenodd" d="M17.8737 10.4551H6.12632L4.42105 7.54491H19.5789L17.8737 10.4551Z" fill="black"/>
<path fill-rule="evenodd" clip-rule="evenodd" d="M6.63158 11.3174H17.3684L15.6632 14.2275H8.33684L6.63158 11.3174Z" fill="black"/>
<path fill-rule="evenodd" clip-rule="evenodd" d="M8.8421 15.0898H15.1579L13.4526 18H10.5474L8.8421 15.0898Z" fill="black"/>
<path fill-rule="evenodd" clip-rule="evenodd" d="M22.2947 2.91018L24 0H0L1.70526 2.91018H22.2947ZM17.8737 10.4551L19.5789 7.54491H4.42105L6.12632 10.4551H17.8737ZM8.33684 14.2275L6.63158 11.3174H17.3684L15.6632 14.2275H8.33684ZM15.1579 15.0898H8.8421L10.5474 18H13.4526L15.1579 15.0898ZM21.7895 3.77245L20.0842 6.68263H3.91579L2.21053 3.77245H21.7895Z" fill="black"/>
</svg>
