<svg width="22" height="22" viewBox="0 0 22 22" fill="none" xmlns="http://www.w3.org/2000/svg">
<path fill-rule="evenodd" clip-rule="evenodd" d="M8.18616 2.32954C7.21573 2.64037 6.31683 3.11059 5.51967 3.70952C5.28891 3.88289 5.06669 4.06704 4.85377 4.26123C5.38251 4.60647 5.91724 4.89405 6.45446 5.12935C6.95563 4.08366 7.55182 3.13756 8.18616 2.32954ZM10 3.11358C9.38577 3.82885 8.78274 4.71854 8.27414 5.73308C8.85251 5.86664 9.42923 5.94685 10 5.98036V3.11358ZM10 7.88715C9.18762 7.84846 8.36233 7.72938 7.53363 7.51471C7.34084 8.0926 7.18429 8.69568 7.07491 9.31746C7.03529 9.54265 7.00186 9.77026 6.97516 10H10V7.88715ZM11.9 10V7.83543C12.7326 7.75166 13.5423 7.59113 14.3178 7.37192C14.533 7.99302 14.7067 8.64428 14.8251 9.31746C14.8647 9.54265 14.8981 9.77026 14.9248 10H11.9ZM10 11.9H6.9172C6.96766 12.7785 7.12952 13.6743 7.43041 14.5719C8.2518 14.3302 9.11289 14.1538 10 14.0646V11.9ZM11.9 14.0129V11.9H14.9828C14.9351 12.7307 14.7877 13.5769 14.5174 14.4255C13.638 14.1854 12.7617 14.0539 11.9 14.0129ZM10 15.9747C9.38538 16.0452 8.78419 16.1643 8.20238 16.3228C8.65957 17.1503 9.25146 17.9707 10 18.7717V15.9747ZM8.15735 19.5612C7.43188 18.7137 6.84842 17.844 6.39006 16.964C5.87835 17.1879 5.39046 17.4389 4.93166 17.709C5.21375 17.9604 5.51163 18.1943 5.82362 18.4092C6.53473 18.8989 7.31914 19.2896 8.15735 19.5612ZM3.65108 16.2642C4.26303 15.8851 4.9313 15.5313 5.64433 15.2212C5.26723 14.11 5.06855 12.995 5.01517 11.9H1.9492C2.102 13.3664 2.60466 14.7273 3.37216 15.8997L3.65108 16.2642ZM1.9492 10H5.06439C5.09823 9.65903 5.14501 9.32152 5.20364 8.98826C5.3303 8.26832 5.51224 7.56793 5.73782 6.89495C5.01794 6.58177 4.30067 6.18819 3.59223 5.70426L3.41436 5.93642C2.62307 7.12315 2.10478 8.50689 1.9492 10ZM13.7427 19.5611C14.9824 19.1594 16.1048 18.4973 17.0462 17.6388C16.5612 17.3221 16.0711 17.0539 15.5787 16.8301C15.1104 17.7557 14.5049 18.6707 13.7427 19.5611ZM13.7645 16.1999C13.1397 16.0465 12.5164 15.9558 11.9 15.9196V18.7717C12.6856 17.9311 13.2986 17.0691 13.7645 16.1999ZM16.3063 15.0688C16.9818 15.373 17.6547 15.7486 18.3197 16.2039C18.4615 16.0055 18.5954 15.8011 18.7211 15.5912C19.3796 14.4911 19.8112 13.2397 19.9508 11.9H16.8848C16.8339 12.945 16.6506 14.0081 16.3063 15.0688ZM16.8356 10H19.9508C19.8014 8.56581 19.3173 7.23265 18.5782 6.07807C18.4792 5.9235 18.3757 5.77212 18.2678 5.62412C17.6092 6.03335 16.8851 6.41347 16.1098 6.74134C16.3597 7.46113 16.56 8.21338 16.6964 8.98826C16.755 9.32152 16.8018 9.65903 16.8356 10ZM15.3791 4.99241C15.9341 4.75655 16.4621 4.48838 16.9564 4.19805L16.8071 4.05072C15.9094 3.28777 14.8616 2.69717 13.7139 2.32956C14.3204 3.10215 14.892 4.00098 15.3791 4.99241ZM11.9 3.11358V5.92531C12.4679 5.8602 13.0244 5.75356 13.5647 5.61264C13.0693 4.64806 12.4898 3.80041 11.9 3.11358ZM4.37838 2.19048C6.20875 0.815291 8.48554 0 10.95 0C13.6666 0 16.1542 0.990457 18.0678 2.62875C18.4638 2.96778 18.8353 3.33457 19.1793 3.72614C19.5445 4.14186 19.8787 4.58557 20.1784 5.0537C21.2683 6.75624 21.9 8.78079 21.9 10.95C21.9 13.0016 21.3349 14.9241 20.3513 16.5671C20.0178 17.1241 19.6364 17.6488 19.2128 18.1356C18.959 18.4272 18.69 18.7052 18.4071 18.9684C16.4529 20.7866 13.8304 21.9 10.95 21.9C8.64824 21.9 6.50975 21.1887 4.74593 19.974C4.00539 19.464 3.33092 18.8653 2.73775 18.1932L2.72071 18.1739C2.38867 17.7959 2.08221 17.3948 1.80406 16.9732C0.663718 15.2448 0 13.1735 0 10.95C0 8.69483 0.682769 6.59626 1.85302 4.85326C2.10857 4.47265 2.38732 4.10904 2.68724 3.76442C3.19369 3.1825 3.76064 2.6546 4.37838 2.19048Z" fill="black"/>
</svg>
