<svg width="17" height="20" viewBox="0 0 17 20" fill="none" xmlns="http://www.w3.org/2000/svg">
<path d="M1.0625 5.325L0.3375 4.6C0.120833 4.4 0.0085 4.16667 0.000500001 3.9C-0.00816667 3.63333 0.0958331 3.4 0.3125 3.2C0.5125 3 0.749833 2.89567 1.0245 2.887C1.29983 2.879 1.5375 2.975 1.7375 3.175L2.4625 3.9C2.64583 4.08333 2.74183 4.31267 2.7505 4.588C2.7585 4.86267 2.6625 5.1 2.4625 5.3C2.27917 5.48333 2.04983 5.579 1.7745 5.587C1.49983 5.59567 1.2625 5.50833 1.0625 5.325V5.325ZM8.1125 3C7.82917 3 7.59183 2.904 7.4005 2.712C7.2085 2.52067 7.1125 2.28333 7.1125 2V1C7.1125 0.716667 7.2085 0.479 7.4005 0.287C7.59183 0.0956666 7.82917 0 8.1125 0C8.39583 0 8.6335 0.0956666 8.8255 0.287C9.01683 0.479 9.1125 0.716667 9.1125 1V2C9.1125 2.28333 9.01683 2.52067 8.8255 2.712C8.6335 2.904 8.39583 3 8.1125 3ZM13.8125 5.325C13.6125 5.125 13.5125 4.88333 13.5125 4.6C13.5125 4.31667 13.6125 4.075 13.8125 3.875L14.5125 3.175C14.6958 2.99167 14.9248 2.9 15.1995 2.9C15.4748 2.9 15.7125 3 15.9125 3.2C16.0958 3.38333 16.1875 3.61667 16.1875 3.9C16.1875 4.18333 16.0958 4.41667 15.9125 4.6L15.2125 5.3C15.0125 5.5 14.7792 5.604 14.5125 5.612C14.2458 5.62067 14.0125 5.525 13.8125 5.325V5.325ZM7.1125 20C6.5625 20 6.09183 19.8043 5.7005 19.413C5.3085 19.021 5.1125 18.55 5.1125 18V15L2.6875 12.575C2.50417 12.3917 2.3625 12.1793 2.2625 11.938C2.1625 11.696 2.1125 11.4417 2.1125 11.175V8C2.1125 7.71667 2.20817 7.479 2.3995 7.287C2.5915 7.09567 2.82917 7 3.1125 7H13.1125C13.3958 7 13.6332 7.09567 13.8245 7.287C14.0165 7.479 14.1125 7.71667 14.1125 8V11.175C14.1125 11.4417 14.0625 11.696 13.9625 11.938C13.8625 12.1793 13.7208 12.3917 13.5375 12.575L11.1125 15V18C11.1125 18.55 10.9168 19.021 10.5255 19.413C10.1335 19.8043 9.6625 20 9.1125 20H7.1125Z" fill="black"/>
</svg>
