<svg width="19" height="19" viewBox="0 0 19 19" fill="none" xmlns="http://www.w3.org/2000/svg">
<path fill-rule="evenodd" clip-rule="evenodd" d="M5.795 18.2514C6.95083 18.7505 8.18583 19 9.5 19C10.8142 19 12.0492 18.7505 13.205 18.2514C14.3608 17.753 15.3663 17.0763 16.2213 16.2213C17.0763 15.3663 17.753 14.3608 18.2514 13.205C18.7505 12.0492 19 10.8142 19 9.5C19 8.18583 18.7505 6.95083 18.2514 5.795C17.753 4.63917 17.0763 3.63375 16.2213 2.77875C15.3663 1.92375 14.3608 1.24672 13.205 0.74765C12.0492 0.249217 10.8142 0 9.5 0C8.18583 0 6.95083 0.249217 5.795 0.74765C4.63917 1.24672 3.63375 1.92375 2.77875 2.77875C1.92375 3.63375 1.24703 4.63917 0.7486 5.795C0.249533 6.95083 0 8.18583 0 9.5C0 10.8142 0.249533 12.0492 0.7486 13.205C1.24703 14.3608 1.92375 15.3663 2.77875 16.2213C3.63375 17.0763 4.63917 17.753 5.795 18.2514ZM9.85584 12.869C9.76322 12.9563 9.65527 13 9.53201 13C9.40875 13 9.30098 12.9563 9.20871 12.869C9.11608 12.7813 9.06977 12.6792 9.06977 12.5625V12.35C8.7352 12.2833 8.44906 12.1603 8.21133 11.981C7.97361 11.802 7.78432 11.5708 7.64344 11.2875C7.59062 11.1792 7.59291 11.0667 7.65031 10.95C7.70736 10.8333 7.79752 10.7542 7.92079 10.7125C8.03524 10.6708 8.1497 10.6708 8.26416 10.7125C8.37862 10.7542 8.47107 10.8333 8.5415 10.95C8.66477 11.1583 8.81884 11.3145 9.00374 11.4185C9.18863 11.5228 9.39554 11.575 9.62446 11.575C9.915 11.575 10.1636 11.5103 10.3704 11.381C10.5775 11.252 10.681 11.05 10.681 10.775C10.681 10.5333 10.5732 10.3375 10.3577 10.1875C10.1418 10.0375 9.75652 9.86667 9.20184 9.675C8.68237 9.5 8.30167 9.29167 8.05972 9.05C7.81742 8.80833 7.69627 8.49167 7.69627 8.1C7.69627 7.75833 7.81953 7.45 8.06606 7.175C8.31259 6.9 8.65596 6.71667 9.09619 6.625V6.4375C9.09619 6.32083 9.1425 6.21867 9.23512 6.131C9.32739 6.04367 9.43516 6 9.55842 6C9.68169 6 9.78945 6.04367 9.88172 6.131C9.97435 6.21867 10.0207 6.32083 10.0207 6.4375V6.625C10.2584 6.64167 10.4808 6.71667 10.6879 6.85C10.8946 6.98333 11.0684 7.14583 11.2093 7.3375C11.2797 7.4375 11.2908 7.54783 11.2425 7.6685C11.1939 7.7895 11.1036 7.875 10.9715 7.925C10.8747 7.96667 10.7713 7.96883 10.6614 7.9315C10.5512 7.89383 10.4521 7.825 10.364 7.725C10.276 7.625 10.1659 7.54583 10.0339 7.4875C9.9018 7.42917 9.74772 7.4 9.57163 7.4C9.26347 7.4 9.02804 7.4625 8.86533 7.5875C8.70227 7.7125 8.62074 7.88333 8.62074 8.1C8.62074 8.31667 8.722 8.4875 8.9245 8.6125C9.127 8.7375 9.49239 8.88333 10.0207 9.05C10.6546 9.26667 11.0772 9.52083 11.2885 9.8125C11.4998 10.1042 11.6055 10.425 11.6055 10.775C11.6055 11.2667 11.447 11.6375 11.13 11.8875C10.8131 12.1375 10.4345 12.3 9.99425 12.375V12.5625C9.99425 12.6792 9.94811 12.7813 9.85584 12.869Z" fill="black"/>
</svg>
