<svg width="17" height="17" viewBox="0 0 17 17" fill="none" xmlns="http://www.w3.org/2000/svg">
<path d="M1.41667 17C1.01528 17 0.678584 16.864 0.406584 16.592C0.135528 16.3209 0 15.9847 0 15.5833V14.7333C0 13.1986 0.785306 11.9529 2.35592 10.9962C3.92558 10.0404 5.97361 9.5625 8.5 9.5625C11.05 9.5625 13.1042 10.0404 14.6625 10.9962C16.2208 11.9529 17 13.1986 17 14.7333V15.5833C17 15.9847 16.864 16.3209 16.592 16.592C16.3209 16.864 15.9847 17 15.5833 17H1.41667ZM8.5 8.5C7.31944 8.5 6.31597 8.08681 5.48958 7.26042C4.66319 6.43403 4.25 5.43056 4.25 4.25C4.25 3.06944 4.66319 2.06597 5.48958 1.23958C6.31597 0.413194 7.31944 0 8.5 0C9.68056 0 10.684 0.413194 11.5104 1.23958C12.3368 2.06597 12.75 3.06944 12.75 4.25C12.75 5.43056 12.3368 6.43403 11.5104 7.26042C10.684 8.08681 9.68056 8.5 8.5 8.5Z" fill="black"/>
</svg>
