<svg xmlns="http://www.w3.org/2000/svg" xmlns:xlink="http://www.w3.org/1999/xlink" width="1080" zoomAndPan="magnify" viewBox="0 0 810 809.999993" height="1080" preserveAspectRatio="xMidYMid meet" version="1.0"><defs><clipPath id="id1"><path d="M 157.558594 283.789062 L 358 283.789062 L 358 486 L 157.558594 486 Z M 157.558594 283.789062 " clip-rule="nonzero"/></clipPath><clipPath id="id2"><path d="M 461 320 L 598.558594 320 L 598.558594 486.289062 L 461 486.289062 Z M 461 320 " clip-rule="nonzero"/></clipPath><clipPath id="id3"><path d="M 366 320 L 386 320 L 386 486.289062 L 366 486.289062 Z M 366 320 " clip-rule="nonzero"/></clipPath><clipPath id="id4"><path d="M 399 354 L 466 354 L 466 486.289062 L 399 486.289062 Z M 399 354 " clip-rule="nonzero"/></clipPath><clipPath id="id5"><path d="M 367.304688 501 L 392 501 L 392 518 L 367.304688 518 Z M 367.304688 501 " clip-rule="nonzero"/></clipPath><clipPath id="id6"><path d="M 396 496.074219 L 401 496.074219 L 401 518 L 396 518 Z M 396 496.074219 " clip-rule="nonzero"/></clipPath><clipPath id="id7"><path d="M 505 500 L 529 500 L 529 518.574219 L 505 518.574219 Z M 505 500 " clip-rule="nonzero"/></clipPath><clipPath id="id8"><path d="M 584 501 L 598.304688 501 L 598.304688 518 L 584 518 Z M 584 501 " clip-rule="nonzero"/></clipPath></defs><g clip-path="url(#id1)"><path fill="#fde411" d="M 225.179688 419.707031 C 225.179688 456.21875 254.574219 485.589844 291.113281 485.589844 C 327.375 485.589844 357.046875 456.21875 357.046875 419.707031 C 357.046875 383.199219 327.375 353.824219 291.113281 353.824219 C 281.054688 353.824219 271.507812 356.089844 262.964844 360.125 L 265.023438 354.320312 C 265.847656 351.800781 266.542969 349.339844 267.089844 346.964844 C 269.972656 334.460938 268.742188 324.269531 260.078125 319.3125 C 264.011719 314.511719 266.507812 309.523438 265.777344 303.816406 L 278.757812 287.222656 L 263.410156 296.890625 C 262.082031 294.171875 259.542969 290.855469 257.046875 288.8125 C 247.78125 281.226562 234.117188 282.582031 226.527344 291.839844 C 218.933594 301.097656 220.292969 314.753906 229.554688 322.339844 C 227.261719 324.039062 222.335938 325.828125 215.960938 327.585938 C 203.84375 330.933594 187.023438 332.792969 172.871094 334.355469 C 167.175781 334.984375 161.910156 335.566406 157.558594 336.175781 C 161.648438 339.675781 166.011719 342.640625 170.464844 345.148438 C 188.847656 355.503906 208.832031 358.050781 218.019531 357.855469 C 222.863281 357.632812 226.367188 356.144531 226.367188 369.386719 Z M 241.9375 419.707031 C 241.9375 446.609375 263.914062 468.570312 291.113281 468.570312 C 318.035156 468.570312 340.015625 446.609375 340.015625 419.707031 C 340.015625 392.804688 318.035156 370.84375 291.113281 370.84375 C 263.914062 370.84375 241.9375 392.804688 241.9375 419.707031 Z M 241.9375 419.707031 " fill-opacity="1" fill-rule="evenodd"/></g><g clip-path="url(#id2)"><path fill="#fde411" d="M 598.558594 320.023438 L 580.855469 320.023438 L 580.855469 375.40625 C 568.289062 361.835938 550.011719 353.253906 529.738281 353.253906 C 492.042969 353.253906 461.199219 382.882812 461.199219 419.714844 C 461.199219 456.542969 492.042969 486.175781 529.738281 486.175781 C 549.945312 486.175781 568.050781 477.789062 580.570312 464.390625 L 580.570312 486.175781 L 598.273438 486.175781 L 598.273438 419.714844 Z M 478.90625 419.714844 C 478.90625 446.851562 501.75 469.003906 529.738281 469.003906 C 558.007812 469.003906 580.570312 447.128906 580.570312 419.714844 C 580.570312 392.300781 558.007812 370.421875 529.738281 370.421875 C 501.75 370.421875 478.90625 392.574219 478.90625 419.714844 Z M 478.90625 419.714844 " fill-opacity="1" fill-rule="evenodd"/></g><g clip-path="url(#id3)"><path fill="#fde411" d="M 376.273438 339.238281 C 381.496094 339.238281 385.890625 334.847656 385.890625 329.628906 C 385.890625 324.414062 381.496094 320.023438 376.273438 320.023438 C 371.054688 320.023438 366.660156 324.414062 366.660156 329.628906 C 366.660156 334.847656 371.054688 339.238281 376.273438 339.238281 Z M 384.792969 418.847656 L 384.792969 352.964844 L 367.757812 352.964844 L 367.757812 419.121094 C 368.582031 460.296875 367.214844 460.890625 367.214844 486.175781 L 384.792969 486.175781 C 384.792969 451.5 385.339844 452.613281 384.792969 418.847656 Z M 384.792969 418.847656 " fill-opacity="1" fill-rule="nonzero"/></g><g clip-path="url(#id4)"><path fill="#fde411" d="M 399.75 420.292969 L 399.75 486.175781 L 416.78125 486.175781 L 416.78125 420.566406 C 417.332031 386.527344 445.902344 371.15625 465.683594 371.15625 L 465.683594 354.410156 C 434.089844 354.410156 400.574219 378.839844 399.75 420.292969 Z M 399.75 420.292969 " fill-opacity="1" fill-rule="nonzero"/></g><g clip-path="url(#id5)"><path fill="#ffffff" d="M 367.351562 517.839844 L 370.484375 517.839844 L 370.484375 504.597656 L 370.53125 504.597656 L 377.734375 517.839844 L 380.984375 517.839844 L 388.140625 504.597656 L 388.1875 504.597656 L 388.1875 517.839844 L 391.320312 517.839844 L 391.320312 501.191406 L 386.761719 501.191406 L 379.347656 514.902344 L 379.324219 514.902344 L 371.863281 501.191406 L 367.351562 501.191406 Z M 367.351562 517.839844 " fill-opacity="1" fill-rule="nonzero"/></g><g clip-path="url(#id6)"><path fill="#ffffff" d="M 398.074219 499.546875 L 400.578125 496.660156 L 399.921875 496.074219 L 397.421875 498.960938 Z M 396.578125 517.839844 L 399.804688 517.839844 L 399.804688 501.191406 L 396.578125 501.191406 Z M 396.578125 517.839844 " fill-opacity="1" fill-rule="nonzero"/></g><path fill="#ffffff" d="M 405.066406 517.839844 L 415.472656 517.839844 C 421.742188 517.839844 425.226562 514.855469 425.226562 509.527344 C 425.226562 504.175781 421.742188 501.191406 415.472656 501.191406 L 405.066406 501.191406 Z M 408.269531 515.375 L 408.269531 503.703125 L 415.191406 503.703125 C 419.589844 503.703125 422.046875 505.769531 422.046875 509.527344 C 422.046875 513.285156 419.589844 515.375 415.191406 515.375 Z M 408.269531 515.375 " fill-opacity="1" fill-rule="nonzero"/><path fill="#ffffff" d="M 430.203125 517.839844 L 433.429688 517.839844 L 433.429688 501.191406 L 430.203125 501.191406 Z M 430.203125 517.839844 " fill-opacity="1" fill-rule="nonzero"/><path fill="#ffffff" d="M 437.617188 517.839844 L 441.007812 517.839844 L 442.902344 514.199219 L 453.285156 514.199219 L 455.175781 517.839844 L 458.59375 517.839844 L 450.035156 501.191406 L 446.246094 501.191406 Z M 443.859375 511.921875 L 448.09375 503.5625 L 448.140625 503.5625 L 452.347656 511.921875 Z M 443.859375 511.921875 " fill-opacity="1" fill-rule="nonzero"/><path fill="#ffffff" d="M 472.457031 517.839844 L 482.863281 517.839844 C 489.128906 517.839844 492.617188 514.855469 492.617188 509.527344 C 492.617188 504.175781 489.128906 501.191406 482.863281 501.191406 L 472.457031 501.191406 Z M 475.660156 515.375 L 475.660156 503.703125 L 482.582031 503.703125 C 486.980469 503.703125 489.433594 505.769531 489.433594 509.527344 C 489.433594 513.285156 486.980469 515.375 482.582031 515.375 Z M 475.660156 515.375 " fill-opacity="1" fill-rule="nonzero"/><path fill="#ffffff" d="M 497.589844 517.839844 L 500.820312 517.839844 L 500.820312 501.191406 L 497.589844 501.191406 Z M 497.589844 517.839844 " fill-opacity="1" fill-rule="nonzero"/><g clip-path="url(#id7)"><path fill="#ffffff" d="M 516.792969 518.378906 C 520.765625 518.378906 524.042969 516.851562 525.722656 514.433594 L 525.746094 514.433594 L 525.980469 517.839844 L 528.601562 517.839844 L 528.601562 508.542969 L 513.445312 508.542969 L 513.445312 510.632812 L 525.46875 510.632812 C 525.398438 513.660156 521.9375 515.960938 517.5625 515.960938 C 512.605469 515.960938 509.050781 513.308594 509.050781 509.574219 C 509.050781 505.792969 512.324219 503.140625 516.933594 503.164062 C 519.925781 503.164062 522.730469 504.5 523.386719 506.40625 L 526.402344 505.722656 C 525.539062 502.742188 521.492188 500.675781 516.933594 500.675781 C 510.40625 500.675781 505.800781 504.382812 505.800781 509.644531 C 505.800781 514.738281 510.359375 518.378906 516.792969 518.378906 Z M 516.792969 518.378906 " fill-opacity="1" fill-rule="nonzero"/></g><path fill="#ffffff" d="M 533.507812 517.839844 L 536.734375 517.839844 L 536.734375 501.191406 L 533.507812 501.191406 Z M 533.507812 517.839844 " fill-opacity="1" fill-rule="nonzero"/><path fill="#ffffff" d="M 548.402344 517.839844 L 551.65625 517.839844 L 551.65625 503.75 L 559.089844 503.75 L 559.089844 501.191406 L 540.96875 501.191406 L 540.96875 503.75 L 548.402344 503.75 Z M 548.402344 517.839844 " fill-opacity="1" fill-rule="nonzero"/><path fill="#ffffff" d="M 559.113281 517.847656 L 562.503906 517.847656 L 564.398438 514.207031 L 574.78125 514.207031 L 576.675781 517.847656 L 580.089844 517.847656 L 571.53125 501.199219 L 567.742188 501.199219 Z M 565.355469 511.929688 L 569.589844 503.570312 L 569.636719 503.570312 L 573.84375 511.929688 Z M 565.355469 511.929688 " fill-opacity="1" fill-rule="nonzero"/><g clip-path="url(#id8)"><path fill="#ffffff" d="M 584.269531 517.847656 L 598.140625 517.847656 L 598.140625 515.265625 L 587.523438 515.265625 L 587.523438 501.199219 L 584.269531 501.199219 Z M 584.269531 517.847656 " fill-opacity="1" fill-rule="nonzero"/></g></svg>