<svg xmlns="http://www.w3.org/2000/svg" xmlns:xlink="http://www.w3.org/1999/xlink" width="1080" zoomAndPan="magnify" viewBox="0 0 810 809.999993" height="1080" preserveAspectRatio="xMidYMid meet" version="1.0"><defs><clipPath id="id1"><path d="M 157.558594 283.789062 L 358 283.789062 L 358 486 L 157.558594 486 Z M 157.558594 283.789062 " clip-rule="nonzero"/></clipPath><clipPath id="id2"><path d="M 461 320 L 598.558594 320 L 598.558594 486.289062 L 461 486.289062 Z M 461 320 " clip-rule="nonzero"/></clipPath><clipPath id="id3"><path d="M 366 320 L 386 320 L 386 486.289062 L 366 486.289062 Z M 366 320 " clip-rule="nonzero"/></clipPath><clipPath id="id4"><path d="M 399 354 L 466 354 L 466 486.289062 L 399 486.289062 Z M 399 354 " clip-rule="nonzero"/></clipPath></defs><g clip-path="url(#id1)"><path fill="#010100" d="M 225.179688 419.707031 C 225.179688 456.21875 254.574219 485.589844 291.113281 485.589844 C 327.375 485.589844 357.046875 456.21875 357.046875 419.707031 C 357.046875 383.199219 327.375 353.824219 291.113281 353.824219 C 281.054688 353.824219 271.507812 356.089844 262.964844 360.125 L 265.023438 354.324219 C 265.847656 351.800781 266.542969 349.339844 267.089844 346.964844 C 269.972656 334.460938 268.742188 324.269531 260.078125 319.3125 C 264.011719 314.511719 266.507812 309.523438 265.777344 303.816406 L 278.757812 287.222656 L 263.410156 296.890625 C 262.082031 294.171875 259.542969 290.855469 257.046875 288.8125 C 247.78125 281.226562 234.117188 282.582031 226.527344 291.839844 C 218.933594 301.097656 220.292969 314.753906 229.554688 322.339844 C 227.261719 324.039062 222.335938 325.828125 215.960938 327.585938 C 203.84375 330.933594 187.023438 332.792969 172.871094 334.355469 C 167.175781 334.984375 161.910156 335.566406 157.558594 336.175781 C 161.648438 339.675781 166.011719 342.640625 170.464844 345.148438 C 188.847656 355.503906 208.832031 358.050781 218.019531 357.855469 C 222.863281 357.632812 226.367188 356.144531 226.367188 369.386719 Z M 241.9375 419.707031 C 241.9375 446.609375 263.914062 468.570312 291.113281 468.570312 C 318.035156 468.570312 340.015625 446.609375 340.015625 419.707031 C 340.015625 392.804688 318.035156 370.84375 291.113281 370.84375 C 263.914062 370.84375 241.9375 392.804688 241.9375 419.707031 Z M 241.9375 419.707031 " fill-opacity="1" fill-rule="evenodd"/></g><g clip-path="url(#id2)"><path fill="#010100" d="M 598.558594 320.023438 L 580.855469 320.023438 L 580.855469 375.40625 C 568.289062 361.835938 550.011719 353.253906 529.738281 353.253906 C 492.042969 353.253906 461.199219 382.882812 461.199219 419.714844 C 461.199219 456.542969 492.042969 486.175781 529.738281 486.175781 C 549.945312 486.175781 568.050781 477.789062 580.570312 464.390625 L 580.570312 486.175781 L 598.273438 486.175781 L 598.273438 419.714844 Z M 478.90625 419.714844 C 478.90625 446.851562 501.75 469.003906 529.738281 469.003906 C 558.007812 469.003906 580.570312 447.128906 580.570312 419.714844 C 580.570312 392.300781 558.007812 370.421875 529.738281 370.421875 C 501.75 370.421875 478.90625 392.574219 478.90625 419.714844 Z M 478.90625 419.714844 " fill-opacity="1" fill-rule="evenodd"/></g><g clip-path="url(#id3)"><path fill="#010100" d="M 376.273438 339.238281 C 381.496094 339.238281 385.890625 334.847656 385.890625 329.628906 C 385.890625 324.414062 381.496094 320.023438 376.273438 320.023438 C 371.054688 320.023438 366.660156 324.414062 366.660156 329.628906 C 366.660156 334.847656 371.054688 339.238281 376.273438 339.238281 Z M 384.792969 418.847656 L 384.792969 352.964844 L 367.757812 352.964844 L 367.757812 419.121094 C 368.582031 460.296875 367.214844 460.890625 367.214844 486.175781 L 384.792969 486.175781 C 384.792969 451.5 385.339844 452.613281 384.792969 418.847656 Z M 384.792969 418.847656 " fill-opacity="1" fill-rule="nonzero"/></g><g clip-path="url(#id4)"><path fill="#010100" d="M 399.75 420.292969 L 399.75 486.175781 L 416.78125 486.175781 L 416.78125 420.566406 C 417.332031 386.527344 445.902344 371.15625 465.683594 371.15625 L 465.683594 354.410156 C 434.089844 354.410156 400.574219 378.839844 399.75 420.292969 Z M 399.75 420.292969 " fill-opacity="1" fill-rule="nonzero"/></g></svg>