<svg xmlns="http://www.w3.org/2000/svg" xmlns:xlink="http://www.w3.org/1999/xlink" width="1080" zoomAndPan="magnify" viewBox="0 0 810 809.999993" height="1080" preserveAspectRatio="xMidYMid meet" version="1.0"><defs><clipPath id="id1"><path d="M 294.921875 303.609375 L 468.921875 303.609375 L 468.921875 506.109375 L 294.921875 506.109375 Z M 294.921875 303.609375 " clip-rule="nonzero"/></clipPath></defs><path fill="#010100" d="M 393.117188 492.054688 L 393.292969 487.070312 C 393.226562 488.761719 393.167969 490.421875 393.117188 492.054688 Z M 393.117188 492.054688 " fill-opacity="1" fill-rule="nonzero"/><g clip-path="url(#id1)"><path fill="#010100" d="M 393.9375 314.8125 C 383.035156 327.777344 384.984375 346.898438 398.289062 357.519531 C 394.988281 359.898438 387.917969 362.402344 378.769531 364.867188 C 361.371094 369.558594 337.21875 372.15625 316.90625 374.34375 C 308.726562 375.226562 301.167969 376.039062 294.921875 376.898438 C 300.796875 381.792969 307.054688 385.949219 313.449219 389.460938 C 339.84375 403.960938 368.535156 407.527344 381.726562 407.25 C 390.238281 406.871094 394.5 408.65625 394.5 430.726562 C 395.261719 441.746094 394.648438 455.519531 394.023438 469.542969 C 393.898438 472.285156 393.777344 475.035156 393.664062 477.777344 C 393.535156 480.9375 393.40625 484.046875 393.292969 487.070312 L 393.117188 492.054688 C 392.957031 497.109375 392.859375 501.832031 392.894531 506.019531 C 394.378906 503.582031 395.996094 500.972656 397.714844 498.214844 C 398.949219 496.234375 400.234375 494.175781 401.5625 492.054688 C 404.558594 487.265625 407.765625 482.136719 411.0625 476.773438 C 427.457031 450.117188 446.125 417.597656 452.175781 392 C 456.3125 374.496094 454.542969 360.222656 442.109375 353.28125 C 447.757812 346.558594 451.335938 339.574219 450.292969 331.585938 L 468.921875 308.347656 L 446.890625 321.882812 C 444.984375 318.078125 441.335938 313.433594 437.757812 310.574219 C 424.453125 299.949219 404.835938 301.847656 393.9375 314.8125 Z M 393.9375 314.8125 " fill-opacity="1" fill-rule="nonzero"/></g></svg>