<svg width="48" height="34" viewBox="0 0 48 34" fill="none" xmlns="http://www.w3.org/2000/svg">
<path d="M13.289 0.56669C13.6034 0.343434 13.9611 0.180995 14.3418 0.0886486C14.7225 -0.00369808 15.1187 -0.0241445 15.5077 0.0284776C15.8967 0.0810996 16.271 0.205759 16.6091 0.395339C16.9473 0.584918 17.2427 0.835706 17.4785 1.13338C17.7142 1.43106 17.8858 1.76979 17.9833 2.13024C18.0809 2.4907 18.1024 2.86581 18.0469 3.23416C17.9913 3.60252 17.8596 3.9569 17.6594 4.27708C17.4592 4.59725 17.1943 4.87696 16.88 5.10021C12.1998 8.42385 9.51853 11.6568 7.98341 14.4789C10.0912 13.9652 12.3157 14.086 14.3476 14.8245C16.3796 15.563 18.1181 16.8826 19.3215 18.5998C20.5248 20.317 21.1333 22.3465 21.0624 24.4063C20.9914 26.4661 20.2445 28.4537 18.9254 30.093C17.6064 31.7323 15.7807 32.9418 13.7023 33.5533C11.6238 34.1649 9.39574 34.1481 7.3278 33.5053C5.25985 32.8626 3.45476 31.6258 2.16341 29.9668C0.872061 28.3079 0.158615 26.3092 0.122237 24.2487C-0.261209 20.769 0.260699 17.2533 1.6424 14.0086C3.4289 9.7414 6.92109 5.08888 13.289 0.56669ZM40.2211 0.56669C40.5355 0.343434 40.8932 0.180995 41.2739 0.0886486C41.6546 -0.00369808 42.0507 -0.0241445 42.4398 0.0284776C42.8288 0.0810996 43.203 0.205759 43.5412 0.395339C43.8793 0.584918 44.1747 0.835706 44.4105 1.13338C44.6463 1.43106 44.8179 1.76979 44.9154 2.13024C45.0129 2.4907 45.0345 2.86581 44.9789 3.23416C44.9234 3.60252 44.7917 3.9569 44.5915 4.27708C44.3913 4.59725 44.1264 4.87696 43.812 5.10021C39.1318 8.42385 36.4506 11.6568 34.9155 14.4789C37.0233 13.9652 39.2477 14.086 41.2797 14.8245C43.3116 15.563 45.0501 16.8826 46.2535 18.5998C47.4569 20.317 48.0654 22.3465 47.9944 24.4063C47.9234 26.4661 47.1765 28.4537 45.8575 30.093C44.5384 31.7323 42.7128 32.9418 40.6343 33.5533C38.5559 34.1649 36.3278 34.1481 34.2599 33.5053C32.1919 32.8626 30.3868 31.6258 29.0955 29.9668C27.8041 28.3079 27.0907 26.3092 27.0543 24.2487C26.6709 20.769 27.1928 17.2533 28.5745 14.0086C30.364 9.7414 33.8531 5.08888 40.2211 0.56669V0.56669Z" fill="#ffff"/>
</svg>
