<svg width="232" height="270" viewBox="0 0 232 270" fill="none" xmlns="http://www.w3.org/2000/svg">
<path d="M133.169 15.7849L133.169 15.7847C147.172 -0.873534 172.403 -3.32273 189.512 10.3405C194.105 14.0112 198.835 20.0302 201.284 24.9185L202.017 26.3808L203.41 25.5246L225.431 11.9959L205.991 36.2458L205.591 36.7445L205.674 37.3782C206.984 47.413 202.527 56.3088 195.102 65.1462L193.934 66.536L195.519 67.4209C203.397 71.8192 207.893 78.5104 209.782 86.9694C211.685 95.49 210.944 105.831 208.212 117.391C200.209 151.248 175.457 194.405 153.576 229.982L153.576 229.982C149.184 237.127 144.911 243.961 140.916 250.347C139.144 253.176 137.43 255.921 135.784 258.562L137.057 259.356L135.784 258.563C134.525 260.583 133.306 262.545 132.134 264.443C132.171 260.304 132.278 255.858 132.426 251.192C132.426 251.191 132.426 251.19 132.426 251.19L132.66 244.553C132.66 244.552 132.66 244.551 132.661 244.55C132.789 241.111 132.933 237.588 133.08 234.008C133.105 233.396 133.13 232.783 133.155 232.168C133.306 228.514 133.467 224.85 133.634 221.195L133.634 221.194L133.636 221.149C134.466 202.517 135.287 184.096 134.271 169.32C134.269 161.95 133.913 156.21 133.186 151.754C132.46 147.299 131.346 144.017 129.755 141.657C126.429 136.725 121.384 136.318 115.69 136.57C98.3052 136.932 60.3341 132.213 25.4254 113.036L25.4252 113.036C17.9424 108.927 10.6071 104.153 3.64324 98.6293C11.0774 97.6711 19.6879 96.7419 28.9295 95.7445L29.4731 95.6859L29.4735 95.6858L29.6551 95.6663C56.6608 92.758 88.9036 89.2857 112.187 83.0073C118.311 81.3575 123.765 79.6878 128.255 78.0242C132.718 76.3705 136.33 74.6869 138.7 72.9791L140.304 71.8232L138.759 70.5899C121.672 56.95 119.18 32.4201 133.169 15.7849Z" stroke="url(#paint0_radial_11_9)" stroke-width="3"/>
<defs>
<radialGradient id="paint0_radial_11_9" cx="0" cy="0" r="1" gradientUnits="userSpaceOnUse" gradientTransform="translate(144.5 125.5) rotate(101.175) scale(147.05 126.466)">
<stop/>
<stop offset="0.802083" stop-color="#fde51136"/>
<stop offset="1" stop-color="#fde51136"/>
</radialGradient>
</defs>
</svg>
