<svg width="35" height="34" viewBox="0 0 35 34" fill="none" xmlns="http://www.w3.org/2000/svg">
<path d="M11.5084 21.0634C11.6352 21.7107 11.9826 22.2922 12.4897 22.706C12.9968 23.1199 13.6314 23.3397 14.2823 23.3271H27.7634C28.4143 23.3397 29.0488 23.1199 29.556 22.706C30.0631 22.2922 30.4105 21.7107 30.5373 21.0634L32.7564 9.26692H9.17935L11.5084 21.0634Z" fill="#FDE411"/>
<path d="M29.9825 30.3571C29.9825 31.1337 29.3615 31.7632 28.5956 31.7632C27.8296 31.7632 27.2086 31.1337 27.2086 30.3571C27.2086 29.5806 27.8296 28.9511 28.5956 28.9511C29.3615 28.9511 29.9825 29.5806 29.9825 30.3571Z" fill="#FDE411"/>
<path d="M14.7261 30.3571C14.7261 31.1337 14.1051 31.7632 13.3392 31.7632C12.5732 31.7632 11.9522 31.1337 11.9522 30.3571C11.9522 29.5806 12.5732 28.9511 13.3392 28.9511C14.1051 28.9511 14.7261 29.5806 14.7261 30.3571Z" fill="#FDE411"/>
<path fill-rule="evenodd" clip-rule="evenodd" d="M0 2.23684C0 1.00147 1.00449 0 2.24359 0H7.79137C8.86341 0 9.78567 0.756136 9.99272 1.80483L11.0244 7.03008H32.7564C33.4238 7.03008 34.0566 7.32636 34.4829 7.83843C34.9091 8.35051 35.0846 9.02521 34.9615 9.67925L32.7424 21.4757L32.7393 21.4922C32.5133 22.6457 31.8928 23.6896 30.977 24.437C30.0669 25.1797 28.9237 25.5809 27.7448 25.5639H14.3009C13.122 25.5809 11.9788 25.1797 11.0686 24.437C10.1534 23.6901 9.53316 22.647 9.30682 21.4943L9.30641 21.4922L6.99392 9.77954C6.98178 9.7279 6.97143 9.67557 6.96294 9.62262L5.94636 4.47368H2.24359C1.00449 4.47368 0 3.47222 0 2.23684ZM11.9076 11.5038L13.7104 20.6345C13.738 20.7757 13.8123 20.8947 13.9108 20.9751C14.0084 21.0548 14.1245 21.0929 14.2386 21.0907C14.2531 21.0904 14.2677 21.0902 14.2823 21.0902H27.7634C27.77 21.0902 27.7766 21.0903 27.7831 21.0903C27.7911 21.0904 27.7991 21.0905 27.8071 21.0907C27.9211 21.0929 28.0373 21.0548 28.1349 20.9751C28.2321 20.8958 28.3058 20.7787 28.3342 20.6398L30.0529 11.5038H11.9076ZM13.3392 31.188C13.8474 31.188 14.1958 30.7807 14.1958 30.3571C14.1958 29.9336 13.8474 29.5263 13.3392 29.5263C12.8309 29.5263 12.4825 29.9336 12.4825 30.3571C12.4825 30.7807 12.8309 31.188 13.3392 31.188ZM9.70862 30.3571C9.70862 28.3805 11.299 26.7143 13.3392 26.7143C15.3794 26.7143 16.9697 28.3805 16.9697 30.3571C16.9697 32.3337 15.3793 34 13.3392 34C11.299 34 9.70862 32.3337 9.70862 30.3571ZM28.5956 31.188C29.1038 31.188 29.4522 30.7807 29.4522 30.3571C29.4522 29.9336 29.1038 29.5263 28.5956 29.5263C28.0873 29.5263 27.7389 29.9336 27.7389 30.3571C27.7389 30.7807 28.0873 31.188 28.5956 31.188ZM24.965 30.3571C24.965 28.3805 26.5554 26.7143 28.5956 26.7143C30.6358 26.7143 32.2261 28.3805 32.2261 30.3571C32.2261 32.3337 30.6358 34 28.5956 34C26.5554 34 24.965 32.3337 24.965 30.3571Z" fill="#FDE411"/>
</svg>
