<svg width="32" height="36" viewBox="0 0 32 36" fill="none" xmlns="http://www.w3.org/2000/svg">
<path fill-rule="evenodd" clip-rule="evenodd" d="M10.3772 1.956C11.8833 0.695148 13.9073 0 16 0C18.0927 0 20.1167 0.695148 21.6228 1.956C23.1321 3.2195 24 4.9525 24 6.77966V13.9831C24 14.5447 23.5002 15 22.8837 15C22.2672 15 21.7674 14.5447 21.7674 13.9831V6.77966C21.7674 5.55009 21.1848 4.35155 20.1122 3.45362C19.0365 2.55303 17.5587 2.0339 16 2.0339C14.4413 2.0339 12.9635 2.55303 11.8878 3.45362C10.8152 4.35155 10.2326 5.55009 10.2326 6.77966V13.9831C10.2326 14.5447 9.73278 15 9.11628 15C8.49978 15 8 14.5447 8 13.9831V6.77966C8 4.9525 8.86788 3.2195 10.3772 1.956Z" fill="#000000"/>
<path d="M29.2684 34.856C28.8792 35.0259 28.459 35.1137 28.0342 35.1139L29.2684 34.856Z" fill="#000000"/>
<path d="M30.2953 34.1263C30.0072 34.4376 29.6575 34.686 29.2684 34.856L30.2953 34.1263Z" fill="#000000"/>
<path d="M30.9425 33.0473C30.8038 33.4476 30.5834 33.815 30.2953 34.1263L30.9425 33.0473Z" fill="#000000"/>
<path d="M31.1012 31.8001C31.1352 32.2223 31.0812 32.6469 30.9425 33.0473L31.1012 31.8001Z" fill="#000000"/>
<path fill-rule="evenodd" clip-rule="evenodd" d="M2.31299 14.2431L0.898753 31.8001C0.864766 32.2223 0.918825 32.6469 1.05753 33.0473C1.19624 33.4476 1.41659 33.815 1.7047 34.1263C1.99282 34.4376 2.34247 34.686 2.73163 34.856C3.12075 35.0259 3.54095 35.1137 3.96578 35.1139H28.0342L29.2684 34.856L30.2953 34.1263L30.9425 33.0473L31.1012 31.8001L29.687 14.2431C29.6251 13.4742 29.2749 12.7568 28.7063 12.2336C28.1376 11.7105 27.3921 11.4201 26.6183 11.4203H23.4892V16.2443C23.4892 16.489 23.2902 16.6874 23.0447 16.6874C22.7993 16.6874 22.6003 16.489 22.6003 16.2443V11.4203H9.39966V16.2443C9.39966 16.489 9.20067 16.6874 8.95521 16.6874C8.70975 16.6874 8.51077 16.489 8.51077 16.2443V11.4203H5.38169C4.94717 11.4202 4.52158 11.5117 4.13121 11.6846C3.82641 11.8197 3.54308 12.0043 3.29373 12.2336C3.04439 12.463 2.83706 12.7297 2.67761 13.0218C2.47341 13.3958 2.34775 13.8114 2.31299 14.2431ZM14.3532 17.0634C14.1817 17.0971 14.0027 17.0635 13.855 16.9681C13.7066 16.8724 13.6005 16.7211 13.5639 16.5455C13.5273 16.3696 13.5643 16.1876 13.6647 16.0401C13.7648 15.893 13.9187 15.7933 14.0906 15.7594C14.5631 15.6663 15.0541 15.6194 15.5503 15.6194C19.5027 15.6194 21.7296 18.4345 22.0834 21.4171C23.7916 21.7053 25.7778 23.1803 25.7778 26.0312C25.7778 28.6232 23.7928 30.6833 21.2381 30.6833H10.3175C7.35334 30.6833 5.77778 28.2534 5.77778 26.0312C5.77778 24.0014 7.00988 21.8853 9.41799 21.458V20.936C9.41799 19.8888 9.76559 18.9883 10.418 18.3492C11.0696 17.711 11.985 17.373 13.0476 17.373C15.0717 17.373 16.6772 18.9344 16.6772 20.936V25.693L17.8254 24.6555L17.8266 24.6543C17.8913 24.5955 17.9668 24.5501 18.0484 24.5203C18.1305 24.4904 18.2176 24.4767 18.3048 24.4798C18.3919 24.4829 18.4779 24.5028 18.5577 24.5387C18.637 24.5743 18.709 24.625 18.7693 24.6886C18.8297 24.7518 18.8773 24.8265 18.9088 24.9088C18.9406 24.9916 18.9554 25.0801 18.952 25.1691C18.9486 25.258 18.9273 25.345 18.8894 25.4252C18.8516 25.5051 18.7984 25.5763 18.7332 25.635L16.6785 27.4912C16.5162 27.6477 16.2937 27.803 16.0067 27.803C15.7176 27.803 15.4927 27.646 15.3264 27.4861L13.277 25.6351C13.1456 25.5163 13.0657 25.3489 13.0589 25.1695C13.0521 24.99 13.119 24.8172 13.2416 24.6887C13.3638 24.5606 13.5311 24.487 13.7058 24.4807C13.7925 24.4776 13.8792 24.4911 13.961 24.5207C14.0428 24.5503 14.1184 24.5955 14.1833 24.6542L15.3333 25.6932V20.936C15.3333 19.6866 14.3399 18.7022 13.0476 18.7022C12.2965 18.7022 11.7349 18.9292 11.3627 19.2942C10.9913 19.6584 10.7619 20.2053 10.7619 20.936V21.3791H11C11.1749 21.3791 11.3446 21.4466 11.4714 21.5701C11.5986 21.6939 11.672 21.864 11.672 22.0437C11.672 22.2234 11.5986 22.3935 11.4714 22.5173C11.3446 22.6407 11.1749 22.7083 11 22.7083H10.3175C9.19572 22.7083 8.41195 23.1404 7.90099 23.7516C7.38051 24.3743 7.12169 25.2104 7.12169 26.0312C7.12169 28.228 8.72173 29.3541 10.3175 29.3541H21.2381C23.0185 29.3541 24.4339 27.9142 24.4339 26.0312C24.4339 24.1081 23.2378 23.0855 22.1376 22.786V22.9298C22.1376 23.1095 22.0642 23.2796 21.937 23.4034C21.8103 23.5268 21.6405 23.5944 21.4656 23.5944C21.2907 23.5944 21.121 23.5268 20.9942 23.4034C20.867 23.2796 20.7937 23.1095 20.7937 22.9298V22.2652C20.7937 20.9668 20.3761 19.6335 19.5212 18.6323C18.6754 17.6418 17.379 16.9485 15.5503 16.9485C15.1486 16.9478 14.747 16.9863 14.3532 17.0634Z" fill="#000000"/>
<path fill-rule="evenodd" clip-rule="evenodd" d="M0.0127147 31.7292C-0.0310914 32.2733 0.0385796 32.8206 0.217344 33.3365C0.396109 33.8525 0.680093 34.326 1.05142 34.7272C1.42274 35.1283 1.87337 35.4485 2.37492 35.6676C2.87646 35.8867 3.41808 35.9998 3.96565 36H28.0342C28.5818 35.9998 29.1235 35.8867 29.6251 35.6676C30.1266 35.4485 30.5773 35.1283 30.9486 34.7272C31.3199 34.326 31.6039 33.8525 31.7827 33.3365C31.9614 32.8206 32.0311 32.2733 31.9873 31.7292L30.573 14.1723C30.4933 13.1813 30.042 12.2566 29.3091 11.5824C28.5762 10.9082 27.6155 10.534 26.6182 10.5342L23.4892 10.5342V7.46583C23.4892 5.48577 22.7001 3.58681 21.2956 2.18669C19.8911 0.786577 17.9863 0 16 0C14.0137 0 12.1088 0.786577 10.7043 2.18669C9.29981 3.58681 8.51077 5.48577 8.51077 7.46583V10.5342L5.38187 10.5342C4.38463 10.534 3.42382 10.9082 2.69093 11.5824C1.95802 12.2566 1.50673 13.1813 1.42695 14.1723L0.0127147 31.7292ZM0.898753 31.8001L2.31299 14.2431C2.34775 13.8114 2.47341 13.3958 2.67761 13.0218C2.83706 12.7297 3.04439 12.463 3.29373 12.2336C3.54308 12.0043 3.82641 11.8197 4.13121 11.6846C4.52158 11.5117 4.94717 11.4202 5.38169 11.4203H8.51077V16.2443C8.51077 16.489 8.70975 16.6874 8.95521 16.6874C9.20067 16.6874 9.39966 16.489 9.39966 16.2443V11.4203H22.6003V16.2443C22.6003 16.489 22.7993 16.6874 23.0447 16.6874C23.2902 16.6874 23.4892 16.489 23.4892 16.2443V11.4203H26.6183C27.3921 11.4201 28.1376 11.7105 28.7063 12.2336C29.2749 12.7568 29.6251 13.4742 29.687 14.2431L31.1012 31.8001C31.1352 32.2223 31.0812 32.6469 30.9425 33.0473C30.8038 33.4476 30.5834 33.815 30.2953 34.1263C30.0072 34.4376 29.6575 34.686 29.2684 34.856C28.8792 35.0259 28.459 35.1137 28.0342 35.1139H3.96578C3.54095 35.1137 3.12075 35.0259 2.73163 34.856C2.34247 34.686 1.99282 34.4376 1.7047 34.1263C1.41659 33.815 1.19624 33.4476 1.05753 33.0473C0.918825 32.6469 0.864766 32.2223 0.898753 31.8001ZM22.6003 7.46583C22.6003 5.72078 21.9049 4.04721 20.6671 2.81327C19.4293 1.57933 17.7505 0.886115 16 0.886115C14.2495 0.886115 12.5706 1.57933 11.3328 2.81327C10.095 4.04721 9.39966 5.72078 9.39966 7.46583V10.5342H22.6003V7.46583Z" fill="#000000"/>
</svg>
