<svg width="34" height="34" viewBox="0 0 34 34" fill="none" xmlns="http://www.w3.org/2000/svg">
<path fill-rule="evenodd" clip-rule="evenodd" d="M12.7091 3.61664C11.2025 4.0992 9.80695 4.82923 8.56935 5.75907C8.21109 6.02823 7.86609 6.31413 7.53553 6.61561C8.35641 7.1516 9.18658 7.59807 10.0206 7.96337C10.7987 6.33993 11.7243 4.8711 12.7091 3.61664ZM15.5251 4.83387C14.5715 5.94433 13.6353 7.32559 12.8457 8.90067C13.7436 9.10803 14.639 9.23255 15.5251 9.28458V4.83387ZM15.5251 12.2449C14.2639 12.1848 12.9826 12 11.696 11.6667C11.3967 12.5639 11.1537 13.5001 10.9839 14.4655C10.9224 14.8151 10.8705 15.1684 10.829 15.5251H15.5251V12.2449ZM18.4749 15.5251V12.1646C19.7675 12.0345 21.0246 11.7853 22.2285 11.445C22.5626 12.4093 22.8323 13.4203 23.0161 14.4655C23.0776 14.8151 23.1295 15.1684 23.1709 15.5251H18.4749ZM15.5251 18.4749H10.739C10.8174 19.8388 11.0687 21.2295 11.5358 22.623C12.811 22.2478 14.1479 21.9739 15.5251 21.8355V18.4749ZM18.4749 21.7552V18.4749H23.261C23.1869 19.7646 22.9581 21.0783 22.5384 22.3958C21.1732 22.023 19.8127 21.8188 18.4749 21.7552ZM15.5251 24.8009C14.5709 24.9104 13.6376 25.0953 12.7343 25.3413C13.4441 26.626 14.363 27.8997 15.5251 29.1433V24.8009ZM12.6644 30.369C11.5381 29.0532 10.6323 27.703 9.92064 26.3368C9.12621 26.6844 8.36875 27.0741 7.65646 27.4934C8.09441 27.8837 8.55687 28.2469 9.04124 28.5805C10.1452 29.3408 11.363 29.9473 12.6644 30.369ZM5.66834 25.2504C6.6184 24.6618 7.6559 24.1125 8.76289 23.6311C8.17743 21.9059 7.86898 20.1749 7.78611 18.4749H3.02616C3.26338 20.7515 4.04376 22.8643 5.23532 24.6845L5.66834 25.2504ZM3.02616 15.5251H7.86252C7.91506 14.9958 7.98769 14.4718 8.07871 13.9544C8.27535 12.8367 8.55782 11.7493 8.90803 10.7045C7.79041 10.2183 6.67684 9.60724 5.57698 8.85593L5.30083 9.21636C4.07235 11.0588 3.2677 13.207 3.02616 15.5251ZM21.3357 30.3688C23.2603 29.7452 25.0029 28.7173 26.4644 27.3844C25.7115 26.8928 24.9506 26.4764 24.1861 26.1289C23.4591 27.5659 22.519 28.9865 21.3357 30.3688ZM21.3695 25.1505C20.3995 24.9124 19.4319 24.7716 18.4749 24.7154V29.1433C19.6945 27.8382 20.6462 26.5 21.3695 25.1505ZM25.3157 23.3945C26.3644 23.8668 27.4091 24.4499 28.4415 25.1567C28.6617 24.8487 28.8696 24.5314 29.0647 24.2055C30.0871 22.4976 30.7571 20.5548 30.9738 18.4749H26.2138C26.1348 20.0973 25.8502 21.7477 25.3157 23.3945ZM26.1375 15.5251H30.9738C30.7419 13.2985 29.9903 11.2288 28.8429 9.43627C28.6892 9.1963 28.5285 8.96128 28.361 8.73151C27.3385 9.36685 26.2143 9.95699 25.0106 10.466C25.3986 11.5835 25.7096 12.7514 25.9214 13.9544C26.0123 14.4718 26.085 14.9958 26.1375 15.5251ZM23.8762 7.75077C24.7379 7.3846 25.5576 6.96826 26.325 6.51752L26.0932 6.28879C24.6995 5.1043 23.0728 4.18739 21.291 3.61667C22.2326 4.81612 23.12 6.21157 23.8762 7.75077ZM18.4749 4.83387V9.19911C19.3566 9.09803 20.2205 8.93247 21.0594 8.71369C20.2902 7.21617 19.3906 5.90018 18.4749 4.83387ZM6.79748 3.40075C9.63916 1.26575 13.1739 0 17 0C21.2176 0 25.0796 1.5377 28.0505 4.08116C28.6653 4.60751 29.242 5.17696 29.7761 5.78488C30.3431 6.43029 30.8619 7.11915 31.3272 7.84593C33.0193 10.4891 34 13.6323 34 17C34 20.1851 33.1227 23.1698 31.5956 25.7206C31.0779 26.5854 30.4857 27.4 29.8281 28.1557C29.4341 28.6084 29.0164 29.04 28.5772 29.4487C25.5433 32.2714 21.4719 34 17 34C13.4265 34 10.1065 32.8957 7.36811 31.0099C6.21841 30.2181 5.17129 29.2886 4.25039 28.2452L4.22393 28.2152C3.70844 27.6283 3.23265 27.0056 2.80082 26.3511C1.03043 23.6677 0 20.452 0 17C0 13.4988 1.06001 10.2408 2.87683 7.53474C3.27358 6.94384 3.70634 6.37933 4.17197 5.84431C4.95824 4.94087 5.83844 4.1213 6.79748 3.40075Z" fill="#FDE411"/>
</svg>
