<svg width="28" height="34" viewBox="0 0 28 34" fill="none" xmlns="http://www.w3.org/2000/svg">
<path fill-rule="evenodd" clip-rule="evenodd" d="M28 13.9091C28 24.7273 14 34 14 34C14 34 0 24.7273 0 13.9091C5.53285e-08 10.2202 1.475 6.68234 4.1005 4.07388C6.72601 1.46542 10.287 0 14 0C17.713 0 21.274 1.46542 23.8995 4.07388C26.525 6.68234 28 10.2202 28 13.9091ZM14 17.6719C17.0256 17.6719 19.4783 15.2352 19.4783 12.2292C19.4783 9.22333 17.0256 6.78656 14 6.78656C10.9744 6.78656 8.52174 9.22333 8.52174 12.2292C8.52174 15.2352 10.9744 17.6719 14 17.6719Z" fill="#FDE411"/>
</svg>
