<svg width="33" height="36" viewBox="0 0 33 36" fill="none" xmlns="http://www.w3.org/2000/svg">
<path d="M1.33527 12.7447C0.244797 14.2271 -0.204387 16.0757 0.0865298 17.884C0.357023 19.5331 1.22206 21.03 2.5225 22.0993C3.82293 23.1686 5.66055 23.3956 7.72943 23.6982L8.6452 32.6522L8.78901 33.6128C8.86246 33.8538 8.96259 34.0834 9.086 34.2982C9.6698 35.3145 10.7747 36 12.0415 36C13.9173 36 15.4379 34.4971 15.4379 32.6432L15.3283 31.9116L14.6525 22.7827C17.0718 22.6792 23.2768 22.7302 29.4608 26.3897C29.9317 26.6671 30.4872 26.7708 31.0285 26.6822C31.3664 26.628 31.6886 26.5028 31.9734 26.3152C32.3443 26.0731 32.6357 25.7297 32.8121 25.327C32.9885 24.9242 33.0423 24.4796 32.9668 24.0474L29.411 1.94508C29.3471 1.51102 29.1565 1.10479 28.8624 0.775997C28.5683 0.447203 28.1835 0.210083 27.7549 0.093599C27.3274 -0.0309454 26.8725 -0.0312044 26.4447 0.0928533C26.0169 0.216911 25.6343 0.460022 25.3429 0.79305C19.1901 7.78933 11.7329 9.0632 11.6609 9.07451L5.90125 9.97966C4.06818 10.2677 2.42574 11.2623 1.33527 12.7447Z" fill="#000000"/>
</svg>
