<svg width="38" height="34" viewBox="0 0 38 34" fill="none" xmlns="http://www.w3.org/2000/svg">
<path d="M10.8152 11.1562L12.4851 0H3.8L0.171 9.5625C0.0591111 9.9025 0 10.2553 0 10.625C0 12.971 2.42778 14.875 5.42767 14.875C8.19322 14.875 10.4796 13.2515 10.8152 11.1562ZM19 14.875C21.9978 14.875 24.4277 12.971 24.4277 10.625C24.4277 10.5379 24.4213 10.4508 24.4171 10.3679L23.3426 0H14.6574L13.5808 10.3594C13.5758 10.4478 13.573 10.5364 13.5723 10.625C13.5723 12.971 16.0022 14.875 19 14.875ZM29.5556 17.0977V25.5H8.44444V17.1105C7.51978 17.4463 6.50222 17.6375 5.42767 17.6375C5.016 17.6375 4.617 17.5886 4.22222 17.5334V31.025C4.22222 32.6613 5.55011 34 7.17356 34H30.8222C32.4478 34 33.7778 32.6591 33.7778 31.025V17.5355C33.3787 17.5972 32.976 17.632 32.5723 17.6396C31.5429 17.6386 30.5218 17.4552 29.5556 17.0977V17.0977ZM37.8311 9.5625L34.1979 0H25.5149L27.1827 11.1393C27.5078 13.243 29.7941 14.875 32.5723 14.875C35.5701 14.875 38 12.971 38 10.625C38 10.2553 37.9409 9.9025 37.8311 9.5625Z" fill="#FDE411"/>
</svg>
