<svg width="38" height="34" viewBox="0 0 38 34" fill="none" xmlns="http://www.w3.org/2000/svg">
<path d="M6.80759 7.96516L7.60411 0H1.36325L0 8.17758C0.593561 8.63877 1.66177 9.25381 3.13992 9.25381C4.33682 9.25381 5.35766 8.85393 6.10129 8.429C6.3887 8.26476 6.62668 8.10124 6.80759 7.96516Z" fill="#FDE411"/>
<path d="M17.0175 8.01484V0H10.7032L9.89634 8.06856C10.0534 8.18001 10.2418 8.30327 10.4583 8.42694C11.2019 8.85187 12.2227 9.25175 13.4196 9.25175C14.6165 9.25175 15.6374 8.85187 16.381 8.42694C16.6329 8.28303 16.8467 8.13967 17.0175 8.01484Z" fill="#FDE411"/>
<path d="M27.2226 8.06856L26.4158 0H20.1015V8.01484C20.2723 8.13967 20.4861 8.28303 20.738 8.42694C21.4816 8.85187 22.5025 9.25175 23.6994 9.25175C24.8963 9.25175 25.9171 8.85187 26.6607 8.42694C26.8772 8.30327 27.0655 8.18001 27.2226 8.06856Z" fill="#FDE411"/>
<path d="M30.3114 7.96311C30.4923 8.09919 30.7303 8.2627 31.0177 8.42694C31.7613 8.85187 32.7822 9.25175 33.9791 9.25175C35.1193 9.25325 36.2261 8.87262 37.121 8.17552L35.7561 0H29.5151L30.3114 7.96311Z" fill="#FDE411"/>
<path fill-rule="evenodd" clip-rule="evenodd" d="M29.5151 0H35.7561L37.121 8.17552C36.2261 8.87262 35.1193 9.25325 33.9791 9.25175C32.7822 9.25175 31.7613 8.85187 31.0177 8.42694C30.7303 8.2627 30.4923 8.09919 30.3114 7.96311L29.5151 0ZM27.7539 7.64249L27.752 7.64426L27.756 7.64038L27.7539 7.64249ZM17.4722 7.64426L17.4763 7.64038L17.4741 7.64249L17.4722 7.64426Z" fill="#FDE411"/>
<path d="M33.9777 12.3357C32.0913 12.3354 30.5427 11.7074 29.4877 11.1045C29.2484 10.9678 29.0317 10.8308 28.8392 10.7002C28.6467 10.8308 28.4301 10.9678 28.1908 11.1045C27.1355 11.7076 25.5864 12.3357 23.6994 12.3357C21.8123 12.3357 20.2633 11.7076 19.2079 11.1045C18.9687 10.9678 18.752 10.8308 18.5595 10.7002C18.367 10.8308 18.1503 10.9678 17.9111 11.1045C16.8557 11.7076 15.3067 12.3357 13.4196 12.3357C11.5326 12.3357 9.98353 11.7076 8.92821 11.1045C8.68957 10.9682 8.47344 10.8316 8.28129 10.7013C8.08838 10.8322 7.87124 10.9695 7.63134 11.1066C6.57602 11.7096 5.02693 12.3377 3.13992 12.3377C2.59561 12.3377 2.08602 12.2857 1.61235 12.1965V31.3531C1.61235 32.0347 1.88311 32.6884 2.36506 33.1704C2.84702 33.6523 3.50069 33.9231 4.18228 33.9231H32.9655C33.6471 33.9231 34.3008 33.6523 34.7827 33.1704C35.2647 32.6884 35.5354 32.0347 35.5354 31.3531V12.188C35.0253 12.2863 34.5039 12.3363 33.9777 12.3357Z" fill="#FDE411"/>
</svg>
