<svg width="61" height="34" viewBox="0 0 61 34" fill="none" xmlns="http://www.w3.org/2000/svg">
<path fill-rule="evenodd" clip-rule="evenodd" d="M58.1666 34H40.1094C40.7046 33.1763 41 32.2087 41 31.1666V29.4666C41 25.5768 38.9655 22.511 35.4189 20.3173C37.8815 19.5224 40.7418 19.125 44 19.125C49.1 19.125 53.2084 20.0808 56.325 21.9924C59.4416 23.9058 61 26.3972 61 29.4666V31.1666C61 31.9694 60.728 32.6418 60.184 33.184C59.6418 33.728 58.9694 34 58.1666 34ZM17.1714 17C14.8103 17 12.8034 16.1736 11.1506 14.5208C9.49779 12.8681 8.67141 10.8611 8.67141 8.5C8.67141 6.13888 9.49779 4.13194 11.1506 2.47916C12.8034 0.826388 14.8103 0 17.1714 0C19.5325 0 21.5394 0.826388 23.1922 2.47916C24.845 4.13194 25.6714 6.13888 25.6714 8.5C25.6714 10.8611 24.845 12.8681 23.1922 14.5208C21.5394 16.1736 19.5325 17 17.1714 17ZM44 17C41.6389 17 39.6319 16.1736 37.9792 14.5208C36.3264 12.8681 35.5 10.8611 35.5 8.5C35.5 6.13888 36.3264 4.13194 37.9792 2.47916C39.6319 0.826388 41.6389 0 44 0C46.3611 0 48.368 0.826388 50.0208 2.47916C51.6736 4.13194 52.5 6.13888 52.5 8.5C52.5 10.8611 51.6736 12.8681 50.0208 14.5208C48.368 16.1736 46.3611 17 44 17Z" fill="#FDE411"/>
<path d="M2.83334 34C2.03056 34 1.35717 33.728 0.813168 33.184C0.271056 32.6418 0 31.9694 0 31.1666V29.4666C0 26.3972 1.57061 23.9058 4.71184 21.9924C7.85116 20.0808 11.9472 19.125 17 19.125C20.1875 19.125 22.9877 19.4983 25.4004 20.2451L25.4583 20.2631C25.4756 20.2685 25.493 20.2739 25.5103 20.2794C25.5474 20.2911 25.5845 20.3029 25.6215 20.3149C26.4706 20.5884 27.2708 20.9091 28.022 21.277C28.4741 21.4984 28.9084 21.7369 29.325 21.9924C32.4416 23.9058 34 26.3972 34 29.4666V31.1666C34 31.9694 33.728 32.6418 33.184 33.184C32.6418 33.728 31.9694 34 31.1666 34H24.8333H20.8888H2.83334Z" fill="#FDE411"/>
</svg>
