<svg width="51" height="34" viewBox="0 0 51 34" fill="none" xmlns="http://www.w3.org/2000/svg">
<path d="M49.6442 32.5341C49.1699 33.0161 48.6326 33.3774 48.0322 33.618C47.433 33.8598 46.8267 33.9809 46.2132 33.9813L16.7639 34C16.1504 34.0004 15.5442 33.8801 14.9453 33.6391C14.3453 33.3992 13.8084 33.0385 13.3346 32.5572L1.37834 20.4097C0.458626 19.4753 -0.000819944 18.3417 3.53917e-07 17.0089C0.000819257 15.6784 0.461661 14.5453 1.38253 13.6097L13.3538 1.44697C13.8282 0.965026 14.3649 0.603213 14.9641 0.361533C15.5644 0.120701 16.1713 0.000284498 16.7849 1.80476e-06L46.2758 0.0237444C47.5587 0.0228964 48.6666 0.496365 49.5997 1.44443C50.534 2.39362 51.0008 3.51977 51 4.82314L50.985 29.1332C50.9847 29.7566 50.8726 30.3652 50.6492 30.9593C50.4258 31.5555 50.0908 32.0805 49.6442 32.5341ZM15.6015 19.5507C16.2992 18.8419 16.6477 17.9917 16.6472 17C16.6489 16.0083 16.3014 15.1586 15.6047 14.4507C14.9079 13.7428 14.0715 13.3897 13.0954 13.3915C12.1194 13.391 11.2825 13.7451 10.5849 14.4539C9.88728 15.1626 9.53873 16.0129 9.53923 17.0046C9.5375 17.9962 9.885 18.846 10.5818 19.5539C11.2785 20.2618 12.1149 20.6149 13.091 20.6131C14.067 20.6136 14.9039 20.2595 15.6015 19.5507Z" fill="#FDE411"/>
</svg>
